<svg width="22" height="30" viewBox="0 0 22 30" fill="none" xmlns="http://www.w3.org/2000/svg">
<ellipse opacity="0.4" cx="11" cy="28" rx="4" ry="2" fill="#444444"/>
<path d="M11 25L10.7422 25.4277L11 25.584L11.2578 25.4277L11 25ZM11 25L11.2588 25.4277L11.2607 25.4268C11.2623 25.4258 11.2648 25.4245 11.2676 25.4229C11.2731 25.4195 11.2809 25.4144 11.291 25.4082C11.3113 25.3957 11.3409 25.3774 11.3789 25.3535C11.455 25.3056 11.5653 25.2348 11.7051 25.1426C11.9848 24.958 12.383 24.6866 12.8594 24.3359C13.8113 23.6352 15.0821 22.6147 16.3545 21.3389C18.8816 18.8048 21.5 15.1757 21.5 10.9736C21.4998 5.1858 16.7998 0.5 11 0.5C5.20022 0.5 0.500213 5.1858 0.5 10.9736C0.5 15.1757 3.11843 18.8048 5.64551 21.3389C6.91789 22.6147 8.18868 23.6352 9.14062 24.3359C9.61702 24.6866 10.0152 24.958 10.2949 25.1426C10.4347 25.2348 10.545 25.3056 10.6211 25.3535C10.6591 25.3774 10.6887 25.3957 10.709 25.4082C10.7191 25.4144 10.7269 25.4195 10.7324 25.4229C10.7352 25.4245 10.7377 25.4258 10.7393 25.4268L10.7412 25.4277L11 25Z" fill="#444444" stroke="white"/>
<g clip-path="url(#clip0_1086_28548)">
<path d="M11.2005 6.71704L11.292 7.24804C11.3349 7.49218 11.442 7.72051 11.6023 7.90963C11.7625 8.09876 11.9702 8.24186 12.204 8.32429L12.6292 8.47429L12.6037 8.92429C12.5925 9.1205 12.6229 9.31686 12.6929 9.5005C12.7629 9.68414 12.8708 9.85093 13.0098 9.98993C13.1487 10.1289 13.3154 10.237 13.499 10.3071C13.6827 10.3772 13.879 10.4076 14.0752 10.3965L14.5252 10.3703L14.6752 10.7955C14.8402 11.2658 15.2512 11.6205 15.7515 11.7075L16.2825 11.799L16.248 12.3368C16.1824 13.345 15.8276 14.3129 15.226 15.1247C14.6245 15.9364 13.8017 16.5575 12.8562 16.9137C11.9107 17.2698 10.8826 17.3458 9.89499 17.1327C8.90739 16.9195 8.00218 16.4262 7.28776 15.7117C6.57335 14.9973 6.08001 14.0921 5.86684 13.1045C5.65367 12.1169 5.7297 11.0888 6.08583 10.1433C6.44196 9.19782 7.06309 8.37503 7.87483 7.77348C8.68656 7.17192 9.6545 6.81711 10.6627 6.75154L11.2005 6.71704ZM9.49946 11.25C9.69837 11.25 9.88913 11.171 10.0298 11.0304C10.1704 10.8897 10.2495 10.699 10.2495 10.5C10.2495 10.3011 10.1704 10.1104 10.0298 9.96971C9.88913 9.82906 9.69837 9.75004 9.49946 9.75004C9.30054 9.75004 9.10978 9.82906 8.96913 9.96971C8.82847 10.1104 8.74946 10.3011 8.74946 10.5C8.74946 10.699 8.82847 10.8897 8.96913 11.0304C9.10978 11.171 9.30054 11.25 9.49946 11.25ZM9.49946 14.25C9.69837 14.25 9.88913 14.171 10.0298 14.0304C10.1704 13.8897 10.2495 13.699 10.2495 13.5C10.2495 13.3011 10.1704 13.1104 10.0298 12.9697C9.88913 12.8291 9.69837 12.75 9.49946 12.75C9.30054 12.75 9.10978 12.8291 8.96913 12.9697C8.82847 13.1104 8.74946 13.3011 8.74946 13.5C8.74946 13.699 8.82847 13.8897 8.96913 14.0304C9.10978 14.171 9.30054 14.25 9.49946 14.25ZM13.2495 13.5C13.2495 13.3011 13.1704 13.1104 13.0298 12.9697C12.8891 12.8291 12.6984 12.75 12.4995 12.75C12.3005 12.75 12.1098 12.8291 11.9691 12.9697C11.8285 13.1104 11.7495 13.3011 11.7495 13.5C11.7495 13.699 11.8285 13.8897 11.9691 14.0304C12.1098 14.171 12.3005 14.25 12.4995 14.25C12.6984 14.25 12.8891 14.171 13.0298 14.0304C13.1704 13.8897 13.2495 13.699 13.2495 13.5Z" fill="white"/>
</g>
<defs>
<clipPath id="clip0_1086_28548">
<rect width="12" height="12" fill="white" transform="translate(5 6)"/>
</clipPath>
</defs>
</svg>
