<svg width="24" height="32" viewBox="0 0 24 32" fill="none" xmlns="http://www.w3.org/2000/svg">
<ellipse opacity="0.4" cx="12" cy="30" rx="4" ry="2" fill="#444444"/>
<path d="M12 27L11.7451 27.4297L12 27.5811L12.2549 27.4297L12 27ZM12 27L12.2559 27.4297L12.2578 27.4277C12.2595 27.4267 12.2626 27.4256 12.2656 27.4238C12.2716 27.4203 12.2802 27.4148 12.291 27.4082C12.3131 27.3948 12.3453 27.3753 12.3867 27.3496C12.4701 27.2979 12.5917 27.2218 12.7451 27.1221C13.0521 26.9225 13.4894 26.6284 14.0127 26.249C15.0584 25.4909 16.4541 24.3878 17.8516 23.0078C20.6281 20.266 23.4998 16.344 23.5 11.8057C23.5 5.55127 18.3452 0.5 12 0.5C5.65482 0.5 0.5 5.55127 0.5 11.8057C0.500198 16.344 3.37194 20.266 6.14844 23.0078C7.54592 24.3878 8.94164 25.4909 9.9873 26.249C10.5106 26.6284 10.9479 26.9225 11.2549 27.1221C11.4083 27.2218 11.5299 27.2979 11.6133 27.3496C11.6547 27.3753 11.6869 27.3948 11.709 27.4082C11.7198 27.4148 11.7284 27.4203 11.7344 27.4238C11.7374 27.4256 11.7405 27.4267 11.7422 27.4277L11.7441 27.4297L12 27Z" fill="#6001D2" stroke="white"/>
<g clip-path="url(#clip0_1163_13899)">
<path d="M12.2005 6.71704L12.292 7.24804C12.3349 7.49218 12.442 7.72051 12.6023 7.90963C12.7625 8.09876 12.9702 8.24186 13.204 8.32429L13.6292 8.47429L13.6037 8.92429C13.5925 9.1205 13.6229 9.31686 13.6929 9.5005C13.7629 9.68414 13.8708 9.85093 14.0098 9.98993C14.1487 10.1289 14.3154 10.237 14.499 10.3071C14.6827 10.3772 14.879 10.4076 15.0752 10.3965L15.5252 10.3703L15.6752 10.7955C15.8402 11.2658 16.2512 11.6205 16.7515 11.7075L17.2825 11.799L17.248 12.3368C17.1824 13.345 16.8276 14.3129 16.226 15.1247C15.6245 15.9364 14.8017 16.5575 13.8562 16.9137C12.9107 17.2698 11.8826 17.3458 10.895 17.1327C9.90739 16.9195 9.00218 16.4262 8.28776 15.7117C7.57335 14.9973 7.08001 14.0921 6.86684 13.1045C6.65367 12.1169 6.7297 11.0888 7.08583 10.1433C7.44196 9.19782 8.06309 8.37503 8.87483 7.77348C9.68656 7.17192 10.6545 6.81711 11.6627 6.75154L12.2005 6.71704ZM10.4995 11.25C10.6984 11.25 10.8891 11.171 11.0298 11.0304C11.1704 10.8897 11.2495 10.699 11.2495 10.5C11.2495 10.3011 11.1704 10.1104 11.0298 9.96971C10.8891 9.82906 10.6984 9.75004 10.4995 9.75004C10.3005 9.75004 10.1098 9.82906 9.96913 9.96971C9.82847 10.1104 9.74946 10.3011 9.74946 10.5C9.74946 10.699 9.82847 10.8897 9.96913 11.0304C10.1098 11.171 10.3005 11.25 10.4995 11.25ZM10.4995 14.25C10.6984 14.25 10.8891 14.171 11.0298 14.0304C11.1704 13.8897 11.2495 13.699 11.2495 13.5C11.2495 13.3011 11.1704 13.1104 11.0298 12.9697C10.8891 12.8291 10.6984 12.75 10.4995 12.75C10.3005 12.75 10.1098 12.8291 9.96913 12.9697C9.82847 13.1104 9.74946 13.3011 9.74946 13.5C9.74946 13.699 9.82847 13.8897 9.96913 14.0304C10.1098 14.171 10.3005 14.25 10.4995 14.25ZM14.2495 13.5C14.2495 13.3011 14.1704 13.1104 14.0298 12.9697C13.8891 12.8291 13.6984 12.75 13.4995 12.75C13.3005 12.75 13.1098 12.8291 12.9691 12.9697C12.8285 13.1104 12.7495 13.3011 12.7495 13.5C12.7495 13.699 12.8285 13.8897 12.9691 14.0304C13.1098 14.171 13.3005 14.25 13.4995 14.25C13.6984 14.25 13.8891 14.171 14.0298 14.0304C14.1704 13.8897 14.2495 13.699 14.2495 13.5Z" fill="white"/>
</g>
<defs>
<clipPath id="clip0_1163_13899">
<rect width="12" height="12" fill="white" transform="translate(6 6)"/>
</clipPath>
</defs>
</svg>
