<svg width="12" height="12" viewBox="0 0 12 12" fill="none" xmlns="http://www.w3.org/2000/svg">
<g clip-path="url(#clip0_1062_18601)">
<path d="M8.71981 4.42065L5.35633 8.48144L2.90148 6.05114L3.74574 5.19836L5.26867 6.70606L7.79565 3.65519L8.71981 4.42065Z" fill="#141414"/>
<path d="M12 6C12 2.68629 9.31371 0 6 0C2.68629 0 0 2.68629 0 6C0 9.31371 2.68629 12 6 12C9.31371 12 12 9.31371 12 6ZM10.65 6C10.65 8.56812 8.56812 10.65 6 10.65C3.43188 10.65 1.35 8.56812 1.35 6C1.35 3.43188 3.43188 1.35 6 1.35C8.56812 1.35 10.65 3.43188 10.65 6Z" fill="#141414"/>
</g>
<defs>
<clipPath id="clip0_1062_18601">
<rect width="12" height="12" fill="white"/>
</clipPath>
</defs>
</svg>
