<svg width="32" height="32" viewBox="0 0 32 32" fill="none" xmlns="http://www.w3.org/2000/svg">
<g clip-path="url(#clip0_976_8404)">
<path d="M16 7.2998C19.1978 7.2998 21.8752 9.30669 22.8252 12.0371L23.1846 13.0703L24.2676 13.2266C26.9696 13.6174 29.0649 15.8842 29.1934 18.6621L29.2002 18.9326C29.2002 22.1177 26.6177 24.7002 23.4326 24.7002H7.41699C4.9469 24.7002 2.92919 22.7597 2.80566 20.3203L2.7998 20.083C2.79996 17.63 4.71498 15.6234 7.13086 15.4766L8.71289 15.3799L8.81738 13.7988C9.04724 10.3261 11.9483 7.48276 15.6406 7.30859L16 7.2998Z" fill="white"/>
<path d="M16 5.5C19.9613 5.5 23.3228 7.98885 24.5254 11.4453C28.1868 11.9749 30.9999 15.1246 31 18.9326C31 23.1118 27.6118 26.5 23.4326 26.5H7.41699C3.87321 26.5 1 23.6268 1 20.083C1.00015 16.6721 3.66185 13.8838 7.02148 13.6797C7.32374 9.11311 11.2266 5.50002 16 5.5ZM15.6406 7.30859C11.9483 7.48276 9.04724 10.3261 8.81738 13.7988L8.71289 15.3799L7.13086 15.4766C4.71498 15.6234 2.79996 17.63 2.7998 20.083L2.80566 20.3203C2.92919 22.7597 4.9469 24.7002 7.41699 24.7002H23.4326C26.6177 24.7002 29.2002 22.1177 29.2002 18.9326L29.1934 18.6621C29.0649 15.8842 26.9696 13.6174 24.2676 13.2266L23.1846 13.0703L22.8252 12.0371C21.8752 9.30669 19.1978 7.2998 16 7.2998L15.6406 7.30859Z" fill="black"/>
<path d="M23.624 16.2729C22.0561 19.3216 19.5543 20.7003 17.1025 21.1626C14.6888 21.6175 12.3153 21.1919 10.8418 20.6547L11.459 18.9633C12.6922 19.4129 14.7342 19.7767 16.7695 19.393C18.7669 19.0164 20.7493 17.928 22.0234 15.4506L23.624 16.2729Z" fill="black"/>
</g>
<defs>
<clipPath id="clip0_976_8404">
<rect width="32" height="32" fill="white"/>
</clipPath>
</defs>
</svg>
