<svg width="12" height="12" viewBox="0 0 12 12" fill="none" xmlns="http://www.w3.org/2000/svg">
<path d="M9.6 7.2C10.1842 6.42107 10.5 5.47367 10.5 4.5C10.5 2.01472 8.48528 0 6 0C3.51472 0 1.5 2.01472 1.5 4.5C1.5 5.47367 1.8158 6.42107 2.4 7.2L5.82692 11.7692C5.91346 11.8846 6.08654 11.8846 6.17308 11.7692L9.6 7.2ZM3.48 6.39C3.07106 5.84475 2.85 5.18157 2.85 4.5C2.85 2.7603 4.2603 1.35 6 1.35C7.7397 1.35 9.15 2.7603 9.15 4.5C9.15 5.18157 8.92894 5.84475 8.52 6.39L6 9.75L3.48 6.39ZM6 6C6.82843 6 7.5 5.32843 7.5 4.5C7.5 3.67157 6.82843 3 6 3C5.17157 3 4.5 3.67157 4.5 4.5C4.5 5.32843 5.17157 6 6 6Z" fill="#141414"/>
</svg>
