<svg width="90" height="90" viewBox="0 0 90 90" fill="none" xmlns="http://www.w3.org/2000/svg">
<path d="M0 16C0 7.16344 7.16344 0 16 0H74C82.8366 0 90 7.16344 90 16V74C90 82.8366 82.8366 90 74 90H16C7.16344 90 0 82.8366 0 74V16Z" fill="#F5F5F5"/>
<path fill-rule="evenodd" clip-rule="evenodd" d="M45 23.356C49.2796 23.356 53.1538 25.1637 55.9582 28.0856C58.7647 31.0097 60.5 35.0493 60.5 39.5111C60.5 43.9434 58.7875 47.9591 56.0137 50.8784L45.1082 62.356L35.1673 52.0001C31.7065 49.0369 29.5 44.5423 29.5 39.5111C29.5 35.0493 31.2353 31.0097 34.0418 28.0856C36.8462 25.1637 40.7204 23.356 45 23.356Z" fill="#1D1D1F" fill-opacity="0.5"/>
<circle cx="45" cy="38.856" r="5.5" fill="white"/>
<ellipse opacity="0.2" cx="45.0293" cy="65.144" rx="5.5" ry="1.5" fill="#1D1D1F" fill-opacity="0.75"/>
</svg>
