<svg width="32" height="32" viewBox="0 0 32 32" fill="none" xmlns="http://www.w3.org/2000/svg">
<g clip-path="url(#clip0_976_8420)">
<path d="M16.5332 3.53027C18.7885 3.53043 20.7221 4.92622 21.5107 6.9082L21.8857 7.85254L22.8965 7.96777C24.9116 8.19892 26.491 9.86664 26.5879 11.9199L26.5928 12.1201C26.5927 14.4285 24.7215 16.2997 22.4131 16.2998H9.91797C8.07449 16.2998 6.5688 14.8523 6.47656 13.0322L6.47266 12.8555C6.47266 11.0883 7.80472 9.63033 9.51953 9.43359L9.68652 9.41895L11.0312 9.33008L11.252 8.00098C11.6599 5.54289 13.7428 3.65177 16.2861 3.53613L16.5332 3.53027Z" fill="#B0B9C1"/>
<path d="M16.5332 1.83008C19.5089 1.83023 22.0528 3.67313 23.0898 6.2793C26.0184 6.61506 28.2929 9.10168 28.293 12.1201C28.2929 15.3674 25.6604 17.9999 22.4131 18H9.91797C7.0766 18 4.7727 15.6968 4.77246 12.8555C4.77246 10.1291 6.8935 7.89906 9.5752 7.72266C10.1301 4.37954 13.0327 1.83008 16.5332 1.83008ZM16.2861 3.53613C13.7428 3.65177 11.6599 5.54289 11.252 8.00098L11.0312 9.33008L9.68652 9.41895L9.51953 9.43359C7.80472 9.63033 6.47266 11.0883 6.47266 12.8555L6.47656 13.0322C6.5688 14.8523 8.07449 16.2998 9.91797 16.2998H22.4131C24.7215 16.2997 26.5927 14.4285 26.5928 12.1201L26.5879 11.9199C26.491 9.86664 24.9116 8.19892 22.8965 7.96777L21.8857 7.85254L21.5107 6.9082C20.7221 4.92622 18.7885 3.53043 16.5332 3.53027L16.2861 3.53613Z" fill="black"/>
<path d="M11.7268 13.6473C12.9399 10.9832 14.8978 9.74147 16.8626 9.32309C18.7794 8.91494 20.6572 9.29602 21.8235 9.77621L21.177 11.3485C20.2564 10.9693 18.7295 10.6629 17.2161 10.9852C15.7506 11.2974 14.2519 12.2041 13.2737 14.3524L11.7268 13.6473Z" fill="black"/>
<path d="M21.222 20.6346C21.3217 20.176 21.775 19.8846 22.2337 19.9842C22.6923 20.084 22.9837 20.5373 22.8841 20.9959L21.5149 27.2997C21.4153 27.7584 20.9619 28.0497 20.5032 27.95C20.0446 27.8503 19.7532 27.397 19.8528 26.9383L21.222 20.6346Z" fill="#0063EB"/>
<path d="M16.2913 20.5672C16.4164 20.1551 16.8361 19.8968 17.2679 19.9813C17.6997 20.0659 17.991 20.4635 17.9514 20.8924L17.9388 20.9784L16.3343 29.1629C16.244 29.6235 15.7977 29.9239 15.3372 29.8338C14.8766 29.7436 14.5762 29.2973 14.6663 28.8368L16.2708 20.6522L16.2913 20.5672Z" fill="#0063EB"/>
<path d="M11.8284 26.2518C11.7272 26.7101 11.2731 26.9994 10.8147 26.8983C10.3567 26.7969 10.0673 26.3438 10.1682 25.8856L11.8284 26.2518ZM11.3499 20.5487C11.4845 20.1393 11.9103 19.8905 12.3401 19.9852C12.7985 20.0863 13.0887 20.5405 12.9876 20.9989L11.8284 26.2518L10.9983 26.0682L10.1682 25.8856L11.3274 20.6317L11.3499 20.5487Z" fill="#0063EB"/>
</g>
<defs>
<clipPath id="clip0_976_8420">
<rect width="32" height="32" fill="white"/>
</clipPath>
</defs>
</svg>
