<svg width="24" height="32" viewBox="0 0 24 32" fill="none" xmlns="http://www.w3.org/2000/svg">
<ellipse opacity="0.4" cx="12" cy="30" rx="4" ry="2" fill="#444444"/>
<path d="M12 27L11.7451 27.4297L12 27.5811L12.2549 27.4297L12 27ZM12 27L12.2559 27.4297L12.2578 27.4277C12.2595 27.4267 12.2626 27.4256 12.2656 27.4238C12.2716 27.4203 12.2802 27.4148 12.291 27.4082C12.3131 27.3948 12.3453 27.3753 12.3867 27.3496C12.4701 27.2979 12.5917 27.2218 12.7451 27.1221C13.0521 26.9225 13.4894 26.6284 14.0127 26.249C15.0584 25.4909 16.4541 24.3878 17.8516 23.0078C20.6281 20.266 23.4998 16.344 23.5 11.8057C23.5 5.55127 18.3452 0.5 12 0.5C5.65482 0.5 0.5 5.55127 0.5 11.8057C0.500198 16.344 3.37194 20.266 6.14844 23.0078C7.54592 24.3878 8.94164 25.4909 9.9873 26.249C10.5106 26.6284 10.9479 26.9225 11.2549 27.1221C11.4083 27.2218 11.5299 27.2979 11.6133 27.3496C11.6547 27.3753 11.6869 27.3948 11.709 27.4082C11.7198 27.4148 11.7284 27.4203 11.7344 27.4238C11.7374 27.4256 11.7405 27.4267 11.7422 27.4277L11.7441 27.4297L12 27Z" fill="#6001D2" stroke="white"/>
<g clip-path="url(#clip0_1163_13900)">
<path d="M16.5375 6.75C14.6536 6.75 13.875 8.27863 13.875 10.1625V14.475H15.9375V17.25H17.1375V6.75H16.5375ZM8.8125 6.75001V9.43501H7.95V6.75001H6.75V11.625C6.75 12.3689 7.35613 12.975 8.1 12.975H8.8125V17.25H10.0125V12.975H10.725C11.4689 12.975 12.075 12.3689 12.075 11.625V6.75001H10.875V9.43501H10.0125V6.75001H8.8125Z" fill="white"/>
</g>
<defs>
<clipPath id="clip0_1163_13900">
<rect width="12" height="12" fill="white" transform="translate(6 6)"/>
</clipPath>
</defs>
</svg>
