<svg width="32" height="32" viewBox="0 0 32 32" fill="none" xmlns="http://www.w3.org/2000/svg">
<g clip-path="url(#clip0_976_8412)">
<path d="M16.5001 8.7002C20.5317 8.7002 23.7999 11.9683 23.7999 16C23.7999 20.0317 20.5317 23.2998 16.5001 23.2998C12.4684 23.2998 9.20025 20.0317 9.20025 16C9.20025 11.9683 12.4684 8.7002 16.5001 8.7002Z" fill="#FFD333"/>
<path d="M16.5001 7C21.4706 7 25.5001 11.0294 25.5001 16C25.5001 20.9706 21.4706 25 16.5001 25C11.5295 25 7.50006 20.9706 7.50006 16C7.50006 11.0294 11.5295 7 16.5001 7ZM16.5001 8.7002C12.4684 8.7002 9.20025 11.9683 9.20025 16C9.20025 20.0317 12.4684 23.2998 16.5001 23.2998C20.5317 23.2998 23.7999 20.0317 23.7999 16C23.7999 11.9683 20.5317 8.7002 16.5001 8.7002Z" fill="black"/>
<path d="M17.3497 1V5.28613H15.6504V1H17.3497Z" fill="black"/>
<path d="M17.3497 26.7143V31.0005H15.6504V26.7143H17.3497Z" fill="black"/>
<path d="M5.78577 16.8496H1.49963L1.49963 15.1504H5.78577V16.8496Z" fill="black"/>
<path d="M5.78577 16.8496H1.49963L1.49963 15.1504H5.78577V16.8496Z" fill="black"/>
<path d="M26.5059 27.2074L23.4751 24.1766L24.6767 22.9751L27.7074 26.0058L26.5059 27.2074Z" fill="black"/>
<path d="M8.32314 9.02462L5.29239 5.99386L6.49392 4.79233L9.52467 7.82309L8.32314 9.02462Z" fill="black"/>
<path d="M5.29269 26.0058L8.32344 22.9751L9.52497 24.1766L6.49422 27.2074L5.29269 26.0058Z" fill="black"/>
<path d="M23.4754 7.82309L26.5062 4.79234L27.7077 5.99387L24.677 9.02462L23.4754 7.82309Z" fill="black"/>
<path d="M24.1876 12.7002C25.3732 12.7002 26.3839 13.4289 26.793 14.4551L27.1622 15.3809L28.1495 15.5117C29.0229 15.6272 29.7096 16.3368 29.792 17.2197L29.7999 17.3984C29.7999 18.4502 28.9475 19.3027 27.8956 19.3027H26.8253V19.2998H19.7813C18.9628 19.2998 18.2893 18.678 18.2081 17.8809L18.2003 17.7188C18.2003 16.8454 18.908 16.1377 19.7813 16.1377H21.1524L21.4629 14.8311C21.7348 13.6908 22.7243 12.8158 23.9415 12.7109L24.1876 12.7002Z" fill="white"/>
<path d="M24.1876 11C26.0881 11 27.7125 12.171 28.3721 13.8262C30.1375 14.0595 31.4999 15.5694 31.5001 17.3984C31.5001 19.3892 29.8863 21.0029 27.8956 21.0029H25.1251V21H19.7813C17.9692 21 16.5001 19.5309 16.5001 17.7188C16.5001 15.9066 17.9691 14.4375 19.7813 14.4375H19.8096C20.2792 12.4667 22.0605 11 24.1876 11ZM23.9415 12.7109C22.7243 12.8158 21.7348 13.6908 21.4629 14.8311L21.1524 16.1377H19.7813C18.908 16.1377 18.2003 16.8454 18.2003 17.7188L18.2081 17.8809C18.2893 18.678 18.9628 19.2998 19.7813 19.2998H26.8253V19.3027H27.8956C28.9475 19.3027 29.7999 18.4502 29.7999 17.3984L29.792 17.2197C29.7096 16.3368 29.0229 15.6272 28.1495 15.5117L27.1622 15.3809L26.793 14.4551C26.3839 13.4289 25.3732 12.7002 24.1876 12.7002L23.9415 12.7109Z" fill="black"/>
</g>
<defs>
<clipPath id="clip0_976_8412">
<rect width="32" height="32" fill="white"/>
</clipPath>
</defs>
</svg>
