<svg width="16" height="16" viewBox="0 0 16 16" fill="none" xmlns="http://www.w3.org/2000/svg">
<path d="M14.4 4.96V3.6H6.79995V5.37H5.19995V3.6H1.6V4.96C2.69 5.54 3.43 6.68 3.43 8C3.43 9.32 2.69 10.46 1.6 11.04V12.4H5.19995V10.63H6.79995V12.4H14.4V11.04C13.31 10.46 12.57 9.32 12.57 8C12.57 6.68 13.31 5.54 14.4 4.96ZM0 14V9.83C1.01 9.83 1.83 9.01 1.83 8C1.83 6.99 1.01 6.17 0 6.17V2H16V6.17C15 6.17 14.17 6.99 14.17 8C14.17 9.01 14.99 9.83 16 9.83V14H0ZM6.79995 6.97H5.19995V9.03H6.79995V6.97Z" fill="white"/>
</svg>
