<svg width="14" height="14" viewBox="0 0 14 14" fill="none" xmlns="http://www.w3.org/2000/svg">
<g clip-path="url(#clip0_1056_4933)">
<path d="M11.6667 0H2.33333C1.04467 0 0 1.04467 0 2.33333V11.6667C0 12.9553 1.04467 14 2.33333 14H11.6667C12.9553 14 14 12.9553 14 11.6667V2.33333C14 1.04467 12.9553 0 11.6667 0Z" fill="#D32323"/>
<mask id="mask0_1056_4933" style="mask-type:alpha" maskUnits="userSpaceOnUse" x="2" y="2" width="10" height="10">
<path d="M11.2657 5.57777H8.29813L7.38134 2.62311C7.32789 2.45022 7.17389 2.33333 6.99995 2.33333C6.82644 2.33333 6.67244 2.45022 6.61898 2.62311L5.70177 5.57777H2.73421C2.56069 5.57777 2.40669 5.69466 2.35324 5.86755C2.29936 6.04044 2.35833 6.22977 2.49875 6.33688L4.89953 8.16266L3.98232 11.1173C3.92887 11.2902 3.98742 11.4796 4.12826 11.5862C4.26869 11.6933 4.45875 11.6933 4.5996 11.5862L6.99995 9.76044L9.40073 11.5862C9.47115 11.64 9.55388 11.6667 9.63661 11.6667C9.71891 11.6667 9.80206 11.64 9.87206 11.5862C10.0125 11.4796 10.0715 11.2902 10.0176 11.1173L9.10079 8.16266L11.5016 6.33688C11.642 6.22977 11.701 6.04044 11.6471 5.86755C11.5936 5.69466 11.4396 5.57777 11.2657 5.57777Z" fill="white"/>
</mask>
<g mask="url(#mask0_1056_4933)">
<path d="M11.2657 5.57777H8.29813L7.38134 2.62311C7.32789 2.45022 7.17389 2.33333 6.99995 2.33333C6.82644 2.33333 6.67244 2.45022 6.61898 2.62311L5.70177 5.57777H2.73421C2.56069 5.57777 2.40669 5.69466 2.35324 5.86755C2.29936 6.04044 2.35833 6.22977 2.49875 6.33688L4.89953 8.16266L3.98232 11.1173C3.92887 11.2902 3.98742 11.4796 4.12826 11.5862C4.26869 11.6933 4.45875 11.6933 4.5996 11.5862L6.99995 9.76044L9.40073 11.5862C9.47115 11.64 9.55388 11.6667 9.63661 11.6667C9.71891 11.6667 9.80206 11.64 9.87206 11.5862C10.0125 11.4796 10.0715 11.2902 10.0176 11.1173L9.10079 8.16266L11.5016 6.33688C11.642 6.22977 11.701 6.04044 11.6471 5.86755C11.5936 5.69466 11.4396 5.57777 11.2657 5.57777Z" fill="white"/>
</g>
</g>
<defs>
<clipPath id="clip0_1056_4933">
<rect width="14" height="14" fill="white"/>
</clipPath>
</defs>
</svg>
